<svg version="1.1" id="Layer_1" xmlns="http://www.w3.org/2000/svg" xmlns:xlink="http://www.w3.org/1999/xlink" x="0px" y="0px"
	 width="100%" viewBox="0 0 1080 1080" enable-background="new 0 0 1080 1080" xml:space="preserve">
<path fill="#FFFFFF" opacity="1.000000" stroke="none" 
	d="
M580.000000,1081.000000 
	C386.688904,1081.000000 193.877838,1081.000000 1.033378,1081.000000 
	C1.033378,721.063782 1.033378,361.127594 1.033378,1.095691 
	C360.894623,1.095691 720.789307,1.095691 1080.842041,1.095691 
	C1080.842041,360.999939 1080.842041,720.999939 1080.842041,1081.000000 
	C914.127136,1081.000000 747.313538,1081.000000 580.000000,1081.000000 
M333.287476,694.767273 
	C332.192413,692.924805 331.049988,691.108582 330.010162,689.235352 
	C324.150177,678.678833 319.061890,667.678650 310.551697,658.760376 
	C297.815796,645.413818 283.240875,635.497620 264.316132,634.099792 
	C240.405609,632.333740 221.720795,642.733521 207.774017,661.238464 
	C191.070160,683.401489 188.032806,709.050781 191.417557,735.894165 
	C193.367844,751.361389 197.361298,766.305176 202.242859,781.783447 
	C201.908249,785.405212 200.779678,789.163208 201.373688,792.625671 
	C204.253891,809.414612 208.283325,825.911987 214.985992,841.682922 
	C226.337997,868.393494 241.946106,892.173767 262.259552,912.988525 
	C282.244446,933.466614 305.543304,949.006836 331.226929,961.251404 
	C353.833252,972.028809 377.343018,980.390930 401.749084,985.772766 
	C419.342865,989.652405 437.211151,992.493774 455.082275,994.846558 
	C470.677185,996.899658 486.424988,998.210083 502.144714,998.803528 
	C529.761047,999.845825 557.270569,998.279724 584.657166,994.095581 
	C608.985291,990.378723 632.601746,984.246643 655.310974,974.871521 
	C682.411804,963.683472 706.679016,948.039978 728.401978,928.219910 
	C762.658691,896.964050 787.008362,859.175537 802.581360,815.824280 
	C814.963623,781.355286 821.248962,745.692383 817.906738,708.883545 
	C816.578247,694.252197 815.072144,679.554932 812.266174,665.156738 
	C806.298523,634.535217 795.078186,605.691895 779.775452,578.531250 
	C763.744446,550.078186 743.876709,524.597473 719.603455,502.610992 
	C697.819214,482.878937 673.125488,467.191681 648.785034,450.979706 
	C640.262756,445.303406 632.141052,439.025635 624.795593,432.939545 
	C629.959534,432.958710 635.123535,432.996368 640.287476,432.993561 
	C655.984070,432.985016 670.910278,429.284088 684.840698,422.338257 
	C734.300476,397.677307 757.285583,344.042206 741.194336,291.082916 
	C739.005127,283.877686 735.744568,276.998016 733.538208,269.373871 
	C734.749634,270.493713 736.142944,271.471741 737.144165,272.755524 
	C746.750732,285.072388 756.171875,297.535461 765.878662,309.772095 
	C780.178528,327.798828 796.915527,342.623657 819.647034,349.174469 
	C835.444397,353.726959 850.708130,352.749207 864.294006,342.910187 
	C884.049805,328.602936 891.891113,308.239990 891.713989,284.525299 
	C891.571167,265.408691 885.575684,247.682800 877.148926,230.749725 
	C853.713562,183.657608 817.619629,148.757507 772.233643,123.149811 
	C730.611084,99.665543 685.594604,86.858727 638.079285,83.211525 
	C598.949646,80.208008 560.549500,83.866234 523.753174,98.766754 
	C504.241028,106.668114 487.045166,117.859192 472.885437,133.586411 
	C462.465698,145.159622 456.179321,158.958099 450.304779,172.741867 
	C449.869049,168.964493 449.571991,165.164932 448.971832,161.413864 
	C447.091370,149.660278 446.092590,137.648926 442.930939,126.242249 
	C437.039093,104.985382 421.711243,92.538841 401.330353,85.585678 
	C370.114441,74.936066 333.630859,89.209732 322.661255,127.611366 
	C317.203003,146.719208 316.462280,166.093918 315.322418,185.535446 
	C314.809448,194.284729 315.999298,203.119873 315.941376,211.912918 
	C315.839478,227.372208 315.317932,242.828201 315.071564,258.287170 
	C314.737457,279.251587 314.010590,300.225128 314.340363,321.180786 
	C314.744995,346.893402 315.505768,372.628632 317.197418,398.282501 
	C318.248779,414.226898 320.544220,430.190186 323.644104,445.875641 
	C328.654205,471.226776 337.691101,495.249329 351.170685,517.423706 
	C363.182373,537.183228 377.613647,554.854675 396.734894,568.237549 
	C405.412689,574.311035 414.309906,580.071045 422.387024,586.287903 
	C417.354980,587.838928 412.303864,589.330933 407.294159,590.951111 
	C383.269043,598.720642 364.848694,613.886047 351.142029,634.719421 
	C339.103607,653.017273 333.293884,673.357544 333.287476,694.767273 
z"/>
<path fill="#F37221" opacity="1.000000" stroke="none" 
	d="
M623.836365,433.022522 
	C632.141052,439.025635 640.262756,445.303406 648.785034,450.979706 
	C673.125488,467.191681 697.819214,482.878937 719.603455,502.610992 
	C743.876709,524.597473 763.744446,550.078186 779.775452,578.531250 
	C795.078186,605.691895 806.298523,634.535217 812.266174,665.156738 
	C815.072144,679.554932 816.578247,694.252197 817.906738,708.883545 
	C821.248962,745.692383 814.963623,781.355286 802.581360,815.824280 
	C787.008362,859.175537 762.658691,896.964050 728.401978,928.219910 
	C706.679016,948.039978 682.411804,963.683472 655.310974,974.871521 
	C632.601746,984.246643 608.985291,990.378723 584.657166,994.095581 
	C557.270569,998.279724 529.761047,999.845825 502.144714,998.803528 
	C486.424988,998.210083 470.677185,996.899658 455.082275,994.846558 
	C437.211151,992.493774 419.342865,989.652405 401.749084,985.772766 
	C377.343018,980.390930 353.833252,972.028809 331.226929,961.251404 
	C305.543304,949.006836 282.244446,933.466614 262.259552,912.988525 
	C241.946106,892.173767 226.337997,868.393494 214.985992,841.682922 
	C208.283325,825.911987 204.253891,809.414612 201.373688,792.625671 
	C200.779678,789.163208 201.908249,785.405212 202.640289,781.576660 
	C203.660110,782.335815 204.428558,783.237671 204.883698,784.276794 
	C218.837082,816.136597 240.493286,841.909668 267.553558,863.351746 
	C299.181580,888.413269 334.811432,905.676208 373.505615,916.631409 
	C422.653259,930.546082 472.393951,934.068115 522.559875,922.912415 
	C570.474915,912.257263 610.369934,888.859131 638.810852,847.798096 
	C671.712158,800.297363 681.693176,747.835327 672.497437,691.392090 
	C668.247681,665.306824 658.406433,641.187012 644.538574,618.933899 
	C657.619995,622.693726 670.312988,626.423157 683.472656,630.289734 
	C684.066895,627.925537 684.885315,626.054321 684.957458,624.154724 
	C685.390381,612.764343 685.976990,601.364807 685.887207,589.973328 
	C685.777161,576.012207 679.097351,566.371155 665.609741,561.834290 
	C658.837891,559.556396 652.092590,557.198547 645.307373,554.961426 
	C618.962402,546.275452 592.207703,538.693359 567.624390,525.357666 
	C542.627441,511.797546 524.343994,492.398407 513.234375,465.918488 
	C505.960297,448.580536 505.244415,430.421448 504.183838,412.266907 
	C503.263306,396.510010 503.240662,380.691376 503.155884,364.898224 
	C503.100586,354.603668 503.857788,344.306366 503.881500,334.009460 
	C503.974335,293.706573 503.942261,253.403320 503.910156,213.100250 
	C503.896790,196.309540 494.722961,187.112289 478.001617,187.014572 
	C469.009033,186.962021 460.016022,186.973267 451.016052,186.494934 
	C450.980286,181.807159 450.951660,177.580170 450.923035,173.353165 
	C456.179321,158.958099 462.465698,145.159622 472.885437,133.586411 
	C487.045166,117.859192 504.241028,106.668114 523.753174,98.766754 
	C560.549500,83.866234 598.949646,80.208008 638.079285,83.211525 
	C685.594604,86.858727 730.611084,99.665543 772.233643,123.149811 
	C817.619629,148.757507 853.713562,183.657608 877.148926,230.749725 
	C885.575684,247.682800 891.571167,265.408691 891.713989,284.525299 
	C891.891113,308.239990 884.049805,328.602936 864.294006,342.910187 
	C850.708130,352.749207 835.444397,353.726959 819.647034,349.174469 
	C796.915527,342.623657 780.178528,327.798828 765.878662,309.772095 
	C756.171875,297.535461 746.750732,285.072388 737.144165,272.755524 
	C736.142944,271.471741 734.749634,270.493713 733.263611,269.697662 
	C732.989014,270.021454 733.044373,270.021637 733.350098,269.735718 
	C733.097107,268.947388 732.538330,268.445007 731.975586,267.981018 
	C731.971558,268.019409 732.046387,268.038147 732.145996,267.687866 
	C731.761169,266.893829 731.276733,266.450043 730.523621,265.818695 
	C721.909729,253.234055 710.475647,244.194122 697.888245,236.611084 
	C672.771484,221.479950 645.924988,214.021240 616.506897,220.033371 
	C573.919983,228.736801 538.877808,264.136932 542.860962,313.844666 
	C544.072693,328.966705 548.067932,343.177551 554.396790,356.832336 
	C565.578369,380.957153 582.074951,400.960052 602.481873,417.755493 
	C609.222473,423.303223 616.697266,427.958954 623.836365,433.022522 
z"/>
<path fill="#64AEAD" opacity="1.000000" stroke="none" 
	d="
M644.150085,618.903503 
	C658.406433,641.187012 668.247681,665.306824 672.497437,691.392090 
	C681.693176,747.835327 671.712158,800.297363 638.810852,847.798096 
	C610.369934,888.859131 570.474915,912.257263 522.559875,922.912415 
	C472.393951,934.068115 422.653259,930.546082 373.505615,916.631409 
	C334.811432,905.676208 299.181580,888.413269 267.553558,863.351746 
	C240.493286,841.909668 218.837082,816.136597 204.883698,784.276794 
	C204.428558,783.237671 203.660110,782.335815 202.789215,781.167847 
	C197.361298,766.305176 193.367844,751.361389 191.417557,735.894165 
	C188.032806,709.050781 191.070160,683.401489 207.774017,661.238464 
	C221.720795,642.733521 240.405609,632.333740 264.316132,634.099792 
	C283.240875,635.497620 297.815796,645.413818 310.551697,658.760376 
	C319.061890,667.678650 324.150177,678.678833 330.010162,689.235352 
	C331.049988,691.108582 332.192413,692.924805 333.586182,695.386414 
	C336.640533,701.489868 339.216370,707.073608 342.184540,712.440430 
	C352.286621,730.706116 362.905182,748.698975 379.052948,762.423828 
	C404.135864,783.743286 433.735657,792.325378 465.630646,786.392639 
	C498.140991,780.345520 517.937256,757.688904 527.895203,727.047791 
	C536.921326,699.273987 532.879028,673.245178 513.792358,650.132690 
	C498.577087,631.708191 479.556580,618.126892 459.257904,606.138184 
	C447.380859,599.123535 435.168884,592.675903 423.107605,585.973206 
	C414.309906,580.071045 405.412689,574.311035 396.734894,568.237549 
	C377.613647,554.854675 363.182373,537.183228 351.170685,517.423706 
	C337.691101,495.249329 328.654205,471.226776 323.644104,445.875641 
	C320.544220,430.190186 318.248779,414.226898 317.197418,398.282501 
	C315.505768,372.628632 314.744995,346.893402 314.340363,321.180786 
	C314.010590,300.225128 314.737457,279.251587 315.071564,258.287170 
	C315.317932,242.828201 315.839478,227.372208 315.941376,211.912918 
	C315.999298,203.119873 314.809448,194.284729 315.322418,185.535446 
	C316.462280,166.093918 317.203003,146.719208 322.661255,127.611366 
	C333.630859,89.209732 370.114441,74.936066 401.330353,85.585678 
	C421.711243,92.538841 437.039093,104.985382 442.930939,126.242249 
	C446.092590,137.648926 447.091370,149.660278 448.971832,161.413864 
	C449.571991,165.164932 449.869049,168.964493 450.613892,173.047516 
	C450.951660,177.580170 450.980286,181.807159 450.663300,186.624786 
	C434.300629,191.771439 429.814301,198.090500 429.826508,214.938004 
	C429.880249,289.081177 429.870972,363.224518 429.762726,437.367615 
	C429.742249,451.386932 429.881470,465.355774 433.762848,478.955505 
	C443.809753,514.158325 466.334412,539.887207 495.937866,560.074036 
	C527.407959,581.533752 562.720276,594.274292 598.901367,605.013672 
	C614.026001,609.502930 629.069641,614.265320 644.150085,618.903503 
z"/>
<path fill="#FCCE0C" opacity="1.000000" stroke="none" 
	d="
M624.315979,432.981049 
	C616.697266,427.958954 609.222473,423.303223 602.481873,417.755493 
	C582.074951,400.960052 565.578369,380.957153 554.396790,356.832336 
	C548.067932,343.177551 544.072693,328.966705 542.860962,313.844666 
	C538.877808,264.136932 573.919983,228.736801 616.506897,220.033371 
	C645.924988,214.021240 672.771484,221.479950 697.888245,236.611084 
	C710.475647,244.194122 721.909729,253.234055 730.546814,266.159058 
	C731.241272,267.137390 731.643799,267.587769 732.046387,268.038147 
	C732.046387,268.038147 731.971558,268.019409 731.915405,268.323608 
	C732.254333,269.092438 732.649353,269.557037 733.044373,270.021637 
	C733.044373,270.021637 732.989014,270.021454 732.984497,269.994537 
	C735.744568,276.998016 739.005127,283.877686 741.194336,291.082916 
	C757.285583,344.042206 734.300476,397.677307 684.840698,422.338257 
	C670.910278,429.284088 655.984070,432.985016 640.287476,432.993561 
	C635.123535,432.996368 629.959534,432.958710 624.315979,432.981049 
z"/>
<path fill="#FCCE0D" opacity="1.000000" stroke="none" 
	d="
M422.747314,586.130554 
	C435.168884,592.675903 447.380859,599.123535 459.257904,606.138184 
	C479.556580,618.126892 498.577087,631.708191 513.792358,650.132690 
	C532.879028,673.245178 536.921326,699.273987 527.895203,727.047791 
	C517.937256,757.688904 498.140991,780.345520 465.630646,786.392639 
	C433.735657,792.325378 404.135864,783.743286 379.052948,762.423828 
	C362.905182,748.698975 352.286621,730.706116 342.184540,712.440430 
	C339.216370,707.073608 336.640533,701.489868 333.768829,695.679993 
	C333.293884,673.357544 339.103607,653.017273 351.142029,634.719421 
	C364.848694,613.886047 383.269043,598.720642 407.294159,590.951111 
	C412.303864,589.330933 417.354980,587.838928 422.747314,586.130554 
z"/>
<path fill="#FCCE0C" opacity="1.000000" stroke="none" 
	d="
M644.538574,618.933899 
	C629.069641,614.265320 614.026001,609.502930 598.901367,605.013672 
	C562.720276,594.274292 527.407959,581.533752 495.937866,560.074036 
	C466.334412,539.887207 443.809753,514.158325 433.762848,478.955505 
	C429.881470,465.355774 429.742249,451.386932 429.762726,437.367615 
	C429.870972,363.224518 429.880249,289.081177 429.826508,214.938004 
	C429.814301,198.090500 434.300629,191.771439 450.670471,187.085571 
	C460.016022,186.973267 469.009033,186.962021 478.001617,187.014572 
	C494.722961,187.112289 503.896790,196.309540 503.910156,213.100250 
	C503.942261,253.403320 503.974335,293.706573 503.881500,334.009460 
	C503.857788,344.306366 503.100586,354.603668 503.155884,364.898224 
	C503.240662,380.691376 503.263306,396.510010 504.183838,412.266907 
	C505.244415,430.421448 505.960297,448.580536 513.234375,465.918488 
	C524.343994,492.398407 542.627441,511.797546 567.624390,525.357666 
	C592.207703,538.693359 618.962402,546.275452 645.307373,554.961426 
	C652.092590,557.198547 658.837891,559.556396 665.609741,561.834290 
	C679.097351,566.371155 685.777161,576.012207 685.887207,589.973328 
	C685.976990,601.364807 685.390381,612.764343 684.957458,624.154724 
	C684.885315,626.054321 684.066895,627.925537 683.472656,630.289734 
	C670.312988,626.423157 657.619995,622.693726 644.538574,618.933899 
z"/>
<path fill="#FFFFFF" opacity="1.000000" stroke="none" 
	d="
M732.145996,267.687866 
	C731.643799,267.587769 731.241272,267.137390 730.815491,266.346619 
	C731.276733,266.450043 731.761169,266.893829 732.145996,267.687866 
z"/>
<path fill="#FFFFFF" opacity="1.000000" stroke="none" 
	d="
M733.350098,269.735718 
	C732.649353,269.557037 732.254333,269.092438 731.919434,268.285248 
	C732.538330,268.445007 733.097107,268.947388 733.350098,269.735718 
z"/>
</svg>